<svg id="microphone" xmlns="http://www.w3.org/2000/svg" width="21.618" height="21.62" viewBox="0 0 21.618 21.62">
  <path id="Path_130" data-name="Path 130" d="M1.325,460.009.211,461.123a.633.633,0,1,0,.9.9L2.221,460.9a3.682,3.682,0,0,1-.9-.9Z" transform="translate(-0.025 -440.584)" fill="#f73e31"/>
  <path id="Path_131" data-name="Path 131" d="M45.5,247.718a2.422,2.422,0,0,0,3.422,3.422l5.438-4.971-3.889-3.889Z" transform="translate(-42.969 -232.049)" fill="#f73e31"/>
  <path id="Path_132" data-name="Path 132" d="M197.9,184.018l3.97,3.97,1.591-1.455-4.107-4.107Z" transform="translate(-189.541 -174.723)" fill="#f73e31"/>
  <path id="Path_133" data-name="Path 133" d="M255.746,120.181a5.292,5.292,0,0,1-1.48-2.863l-1.658,1.813,4.187,4.187,1.81-1.655A5.282,5.282,0,0,1,255.746,120.181Z" transform="translate(-241.943 -112.364)" fill="#f73e31"/>
  <path id="Path_134" data-name="Path 134" d="M364.8,1.187a4.056,4.056,0,0,0-5.251-.413l5.664,5.664a4.06,4.06,0,0,0-.413-5.25Z" transform="translate(-344.37)" fill="#f73e31"/>
  <path id="Path_135" data-name="Path 135" d="M320.825,39.562a4.055,4.055,0,0,0,5.664,5.664Z" transform="translate(-306.539 -37.891)" fill="#f73e31"/>
</svg>
