<svg id="smile" xmlns="http://www.w3.org/2000/svg" width="24.454" height="24.454" viewBox="0 0 24.454 24.454">
  <g id="Group_55" data-name="Group 55">
    <g id="Group_54" data-name="Group 54">
      <path id="Path_115" data-name="Path 115" d="M114.455,224.135a.531.531,0,0,0-.751.041,5.914,5.914,0,0,1-8.777,0,.532.532,0,1,0-.792.709,6.977,6.977,0,0,0,10.361,0A.532.532,0,0,0,114.455,224.135Z" transform="translate(-97.089 -209.114)" fill="#a2a2a2"/>
      <path id="Path_116" data-name="Path 116" d="M12.227,0A12.227,12.227,0,1,0,24.454,12.227,12.241,12.241,0,0,0,12.227,0Zm0,23.391A11.164,11.164,0,1,1,23.391,12.227,11.176,11.176,0,0,1,12.227,23.391Z" fill="#a2a2a2"/>
      <path id="Path_117" data-name="Path 117" d="M210.658,128A2.661,2.661,0,0,0,208,130.658a.532.532,0,1,0,1.063,0,1.595,1.595,0,1,1,3.19,0,.532.532,0,1,0,1.063,0A2.661,2.661,0,0,0,210.658,128Z" transform="translate(-194.178 -119.494)" fill="#a2a2a2"/>
      <path id="Path_118" data-name="Path 118" d="M84.253,130.658a.532.532,0,1,0,1.063,0,2.658,2.658,0,0,0-5.316,0,.532.532,0,1,0,1.063,0,1.595,1.595,0,1,1,3.19,0Z" transform="translate(-74.684 -119.494)" fill="#a2a2a2"/>
    </g>
  </g>
</svg>
